<?xml version="1.0" encoding="utf-8"?>
<!-- Generator: Adobe Illustrator 27.5.0, SVG Export Plug-In . SVG Version: 6.00 Build 0)  -->
<svg version="1.1" id="Layer_1" xmlns="http://www.w3.org/2000/svg" xmlns:xlink="http://www.w3.org/1999/xlink" x="0px" y="0px"
	 viewBox="0 0 14 14" style="enable-background:new 0 0 14 14;" xml:space="preserve">
<style type="text/css">
	.st0{fill:#A6A6A6;}
</style>
<path class="st0" d="M7,0.2C3.2,0.2,0.2,3.2,0.2,7c0,3.8,3.1,6.8,6.8,6.8c3.8,0,6.8-3.1,6.8-6.8C13.8,3.2,10.8,0.2,7,0.2z M7,1.2
	c3.2,0,5.8,2.6,5.8,5.8s-2.6,5.8-5.8,5.8c-3.2,0-5.8-2.6-5.8-5.8S3.8,1.2,7,1.2z M7,2.1c-0.3,0-0.5,0.2-0.5,0.5V7
	c0,0.2,0.1,0.4,0.3,0.5l3.4,2c0.3,0.1,0.6,0.1,0.7-0.2C11,9,11,8.7,10.7,8.5L7.5,6.7v-4C7.5,2.4,7.3,2.1,7,2.1z"/>
</svg>
