<?xml version="1.0" encoding="utf-8"?>
<!-- Generator: Adobe Illustrator 27.5.0, SVG Export Plug-In . SVG Version: 6.00 Build 0)  -->
<svg version="1.1" id="Layer_1" xmlns="http://www.w3.org/2000/svg" xmlns:xlink="http://www.w3.org/1999/xlink" x="0px" y="0px"
	 viewBox="0 0 14 14" style="enable-background:new 0 0 14 14;" xml:space="preserve">
<style type="text/css">
	.st0{fill:#A6A6A6;}
</style>
<g>
	<path class="st0" d="M1.9,13.5c-0.3,0-0.5-0.2-0.5-0.5l-0.2-2.4C1,9.9,2.2,9,4.9,8c0-0.1-0.1-0.1-0.1-0.2L4.7,7.7
		C4.2,7,3.6,5.7,3.6,4.3c0-0.9,0.3-3.9,3.4-3.9c2.8,0,3.4,2.6,3.4,3.9c0,1.5-0.6,2.7-1.1,3.3L9.3,7.8c0,0.1-0.1,0.1-0.1,0.2
		c2.6,1,3.8,1.9,3.6,2.8l-0.2,2.4c0,0.3-0.3,0.5-0.5,0.5c-0.3,0-0.5-0.3-0.5-0.5l0.2-2.4c-0.1-0.3-1.7-1.2-3.5-1.9C8,8.9,7.6,9,7,9
		C6.4,9,6,8.9,5.7,8.7C4,9.4,2.4,10.2,2.2,10.6L2.4,13C2.4,13.3,2.2,13.5,1.9,13.5C1.9,13.5,1.9,13.5,1.9,13.5z M2.2,10.5L2.2,10.5
		C2.2,10.6,2.2,10.5,2.2,10.5z M7,1.5c-1.6,0-2.4,1.6-2.4,2.9C4.6,5.2,5.3,8,7,8s2.4-2.7,2.4-3.7C9.4,3.5,9.1,1.5,7,1.5z"/>
</g>
</svg>
