<?xml version="1.0" encoding="utf-8"?>
<!-- Generator: Adobe Illustrator 27.5.0, SVG Export Plug-In . SVG Version: 6.00 Build 0)  -->
<svg version="1.1" id="Layer_1" xmlns="http://www.w3.org/2000/svg" xmlns:xlink="http://www.w3.org/1999/xlink" x="0px" y="0px"
	 viewBox="0 0 14 14" style="enable-background:new 0 0 14 14;" xml:space="preserve">
<style type="text/css">
	.st0{fill:#A6A6A6;}
</style>
<path class="st0" d="M11.3,7c0.3,0,0.5,0.1,0.7,0.3c0.2,0.1,0.4,0.2,0.6,0.1c0.2-0.1,0.3-0.3,0.3-0.5V3.5c0-0.1-0.1-0.3-0.2-0.4
	c-0.1-0.1-0.2-0.2-0.4-0.2H9.9c0-0.1,0-0.2,0-0.3c0-1.2-1-2.2-2.2-2.2c-1.2,0-2.2,1-2.2,2.2c0,0.1,0,0.2,0,0.3H3.1
	C3,2.9,2.9,3,2.8,3.1S2.6,3.3,2.6,3.5v2.5c-0.1,0-0.2,0-0.3,0c-1.2,0-2.2,1-2.2,2.2c0,1.3,1.1,2.3,2.5,2.1v2.5
	c0,0.1,0.1,0.3,0.2,0.4c0.1,0.1,0.2,0.2,0.4,0.2h9.3c0.1,0,0.3-0.1,0.4-0.2c0.1-0.1,0.2-0.2,0.2-0.4V9.3c0-0.2-0.1-0.4-0.3-0.5
	c-0.2-0.1-0.4,0-0.6,0.1c-0.2,0.2-0.5,0.3-0.7,0.3c-0.6,0-1.1-0.5-1.1-1.1C10.2,7.5,10.7,7,11.3,7z M9.2,8.1c0,1.2,1,2.2,2.2,2.2
	c0.2,0,0.4,0,0.6-0.1v2H3.7V9.5c0-0.2-0.1-0.3-0.3-0.4C3.2,9,3,8.9,2.9,9C2.7,9.1,2.5,9.2,2.3,9.2c-0.6,0-1.1-0.5-1.1-1.1
	C1.2,7.5,1.7,7,2.3,7c0.2,0,0.4,0,0.6,0.2c0.2,0.1,0.3,0.1,0.5,0C3.6,7,3.7,6.8,3.7,6.7V4h2.7c0.2,0,0.3-0.1,0.4-0.3
	c0.1-0.2,0.1-0.4,0-0.5C6.7,3,6.7,2.8,6.7,2.6c0-0.6,0.5-1.1,1.1-1.1c0.6,0,1.1,0.5,1.1,1.1c0,0.2,0,0.4-0.1,0.5l0,0
	c-0.1,0.2-0.1,0.4,0,0.5C8.8,3.9,9,4,9.2,4h2.7v2c-0.2-0.1-0.4-0.1-0.6-0.1C10.1,5.9,9.2,6.9,9.2,8.1z"/>
</svg>
